USFL
nRows=112
nColumns=2
inDegrees=yes
endheader
time	soleus_r	
4.0625	 33.054500	
4.125	 33.074982	
4.1875	 33.089565	
4.25	 33.051807	
4.3125	 33.054093	
4.375	 33.016115	
4.4375	 33.025181	
4.5	 33.068389	
4.5625	 33.067162	
4.625	 33.070823	
4.6875	 33.089314	
4.75	 33.196272	
4.8125	 33.052844	
4.875	 33.059029	
4.9375	 33.086938	
5	 33.049131	
5.0625	 33.043271	
5.125	 33.085719	
5.1875	 33.103088	
5.25	 33.036106	
5.3125	 33.070036	
5.375	 33.204959	
5.4375	 33.151676	
5.5	 33.214224	
5.5625	 33.148862	
5.625	 33.171331	
5.6875	 33.147278	
5.75	 33.226949	
5.8125	 33.135780	
5.875	 33.069791	
5.9375	 33.076904	
6	 33.086911	
6.0625	 33.059223	
6.125	 33.044193	
6.1875	 33.083995	
6.25	 33.329056	
6.3125	 30.305930	
6.375	 30.051115	
6.4375	 27.697654	
6.5	 27.753918	
6.5625	 15.008343	
6.625	 16.656925	
6.6875	 16.380770	
6.75	 16.515150	
6.8125	 16.587598	
6.875	 16.388559	
6.9375	 16.807607	
7	 17.216762	
7.0625	 17.460665	
7.125	 17.225682	
7.1875	 17.144695	
7.25	 17.141998	
7.3125	 17.369506	
7.375	 17.666996	
7.4375	 17.636304	
7.5	 17.620409	
7.5625	 17.808372	
7.625	 17.903400	
7.6875	 18.108196	
7.75	 18.113241	
7.8125	 18.066730	
7.875	 17.825792	
7.9375	 17.589003	
8	 17.370044	
8.0625	 17.237183	
8.125	 17.299399	
8.1875	 17.331220	
8.25	 17.433510	
8.3125	 17.390760	
8.375	 17.226820	
8.4375	 17.086316	
8.5	 17.073806	
8.5625	 17.016806	
8.625	 16.921640	
8.6875	 16.736347	
8.75	 16.706576	
8.8125	 16.534258	
8.875	 16.560055	
8.9375	 16.343435	
9	 16.226957	
9.0625	 16.182469	
9.125	 16.210848	
9.1875	 16.302459	
9.25	 16.330991	
9.3125	 16.394255	
9.375	 16.451021	
9.4375	 16.464912	
9.5	 16.466711	
9.5625	 16.537093	
9.625	 16.657794	
9.6875	 16.737698	
9.75	 16.735759	
9.8125	 16.758391	
9.875	 16.685828	
9.9375	 16.741499	
10	 16.817707	
10.0625	 16.758159	
10.125	 16.785654	
10.1875	 16.545388	
10.25	 16.507455	
10.3125	 16.706213	
10.375	 18.284548	
10.4375	 19.545237	
10.5	 23.979751	
10.5625	 24.158221	
10.625	 24.101548	
10.6875	 23.824175	
10.75	 28.561937	
10.8125	 28.294553	
10.875	 28.605713	
10.9375	 28.793194	
11	 28.842574	
